<svg id="Ñëîé_1" data-name="Ñëîé 1" xmlns="http://www.w3.org/2000/svg" xmlns:xlink="http://www.w3.org/1999/xlink" viewBox="0 0 438.49 324.58"><defs><style>.cls-1{fill:url(#Áåçûìÿííûé_ãðàäèåíò_33);}.cls-2{fill:url(#Áåçûìÿííûé_ãðàäèåíò_33-2);}.cls-3{fill:url(#Áåçûìÿííûé_ãðàäèåíò_33-3);}.cls-4{fill:#020230;opacity:0.6;}.cls-5{fill:url(#Áåçûìÿííûé_ãðàäèåíò_33-4);}.cls-6{fill:url(#Áåçûìÿííûé_ãðàäèåíò_113);}.cls-7{fill:url(#Áåçûìÿííûé_ãðàäèåíò_109);}.cls-8{fill:url(#Áåçûìÿííûé_ãðàäèåíò_343);}.cls-29,.cls-9{fill:#fff;}.cls-10,.cls-14{opacity:0.4;}.cls-11,.cls-14,.cls-15{fill:#06033e;}.cls-12{fill:url(#Áåçûìÿííûé_ãðàäèåíò_343-2);}.cls-13{fill:url(#Áåçûìÿííûé_ãðàäèåíò_441);}.cls-15,.cls-17,.cls-29{opacity:0.5;}.cls-16{fill:url(#Áåçûìÿííûé_ãðàäèåíò_343-3);}.cls-18{fill:#f8359e;}.cls-19{fill:url(#Áåçûìÿííûé_ãðàäèåíò_33-5);}.cls-20{fill:url(#Áåçûìÿííûé_ãðàäèåíò_199);}.cls-21{fill:url(#Áåçûìÿííûé_ãðàäèåíò_144);}.cls-22{fill:url(#Áåçûìÿííûé_ãðàäèåíò_483);}.cls-23{fill:url(#Áåçûìÿííûé_ãðàäèåíò_483-2);}.cls-24{fill:url(#Áåçûìÿííûé_ãðàäèåíò_193);}.cls-25{fill:url(#Áåçûìÿííûé_ãðàäèåíò_223);}.cls-26{fill:#0c0a78;}.cls-27{fill:url(#Áåçûìÿííûé_ãðàäèåíò_193-2);}.cls-28{fill:#e8975b;}</style><linearGradient id="Áåçûìÿííûé_ãðàäèåíò_33" x1="405.88" y1="269.37" x2="438.49" y2="269.37" gradientUnits="userSpaceOnUse"><stop offset="0" stop-color="#e39a65"/><stop offset="1" stop-color="#e95f8d"/></linearGradient><linearGradient id="Áåçûìÿííûé_ãðàäèåíò_33-2" x1="361.22" y1="224.68" x2="416" y2="224.68" xlink:href="#Áåçûìÿííûé_ãðàäèåíò_33"/><linearGradient id="Áåçûìÿííûé_ãðàäèåíò_33-3" x1="0" y1="243.03" x2="54.78" y2="243.03" xlink:href="#Áåçûìÿííûé_ãðàäèåíò_33"/><linearGradient id="Áåçûìÿííûé_ãðàäèåíò_33-4" x1="63.78" y1="239.51" x2="356.14" y2="239.51" xlink:href="#Áåçûìÿííûé_ãðàäèåíò_33"/><radialGradient id="Áåçûìÿííûé_ãðàäèåíò_113" cx="225.26" cy="23.06" r="223.3" gradientUnits="userSpaceOnUse"><stop offset="0" stop-color="#e39a65"/><stop offset="0.47" stop-color="#a92ffb"/><stop offset="0.59" stop-color="#891cfb"/><stop offset="0.74" stop-color="#6507fa"/><stop offset="0.8" stop-color="#0d0c6f"/></radialGradient><radialGradient id="Áåçûìÿííûé_ãðàäèåíò_109" cx="88.69" cy="202.38" r="244.17" gradientUnits="userSpaceOnUse"><stop offset="0" stop-color="#e39a65"/><stop offset="0.47" stop-color="#a92ffb"/><stop offset="0.57" stop-color="#891cfb"/><stop offset="0.68" stop-color="#6507fa"/><stop offset="0.74" stop-color="#0d0c6f"/></radialGradient><radialGradient id="Áåçûìÿííûé_ãðàäèåíò_343" cx="111.15" cy="153.37" r="218.96" gradientUnits="userSpaceOnUse"><stop offset="0" stop-color="#e39a65"/><stop offset="0.47" stop-color="#a92ffb"/><stop offset="0.59" stop-color="#891cfb"/><stop offset="0.73" stop-color="#6507fa"/><stop offset="1" stop-color="#3919bb"/></radialGradient><radialGradient id="Áåçûìÿííûé_ãðàäèåíò_343-2" cx="165.7" cy="69.64" r="223.34" xlink:href="#Áåçûìÿííûé_ãðàäèåíò_343"/><linearGradient id="Áåçûìÿííûé_ãðàäèåíò_441" x1="190.24" y1="128.27" x2="369.21" y2="128.27" gradientUnits="userSpaceOnUse"><stop offset="0" stop-color="#3919bb"/><stop offset="1" stop-color="#6507fa"/></linearGradient><radialGradient id="Áåçûìÿííûé_ãðàäèåíò_343-3" cx="84.16" cy="21.94" r="347.85" xlink:href="#Áåçûìÿííûé_ãðàäèåíò_343"/><linearGradient id="Áåçûìÿííûé_ãðàäèåíò_33-5" x1="68.23" y1="152.75" x2="145" y2="152.75" xlink:href="#Áåçûìÿííûé_ãðàäèåíò_33"/><radialGradient id="Áåçûìÿííûé_ãðàäèåíò_199" cx="75.03" cy="90.12" r="165.35" gradientUnits="userSpaceOnUse"><stop offset="0" stop-color="#e39a65"/><stop offset="0.15" stop-color="#a92ffb"/><stop offset="0.41" stop-color="#3919bb"/><stop offset="0.93" stop-color="#3919bb"/></radialGradient><linearGradient id="Áåçûìÿííûé_ãðàäèåíò_144" x1="77.96" y1="69.64" x2="137.27" y2="69.64" gradientUnits="userSpaceOnUse"><stop offset="0" stop-color="#e39a65"/><stop offset="0.25" stop-color="#a92ffb"/><stop offset="0.56" stop-color="#3919bb"/></linearGradient><linearGradient id="Áåçûìÿííûé_ãðàäèåíò_483" x1="83.52" y1="66.62" x2="131.71" y2="66.62" gradientUnits="userSpaceOnUse"><stop offset="0" stop-color="#4f1fec"/><stop offset="1" stop-color="#a92ffb"/></linearGradient><linearGradient id="Áåçûìÿííûé_ãðàäèåíò_483-2" x1="82.38" y1="66.62" x2="130.56" y2="66.62" xlink:href="#Áåçûìÿííûé_ãðàäèåíò_483"/><linearGradient id="Áåçûìÿííûé_ãðàäèåíò_193" x1="83.53" y1="60.27" x2="144.28" y2="60.27" gradientUnits="userSpaceOnUse"><stop offset="0" stop-color="#131060"/><stop offset="0.19" stop-color="#141062"/><stop offset="0.28" stop-color="#19106a"/><stop offset="0.36" stop-color="#221078"/><stop offset="0.42" stop-color="#2e0f8b"/><stop offset="0.48" stop-color="#3e0fa3"/><stop offset="0.54" stop-color="#510ec2"/><stop offset="0.58" stop-color="#680de5"/><stop offset="0.61" stop-color="#740df8"/><stop offset="0.62" stop-color="#7a14f0"/><stop offset="0.68" stop-color="#9b3cc3"/><stop offset="0.75" stop-color="#b75d9d"/><stop offset="0.81" stop-color="#cc7680"/><stop offset="0.88" stop-color="#dc886c"/><stop offset="0.94" stop-color="#e5935f"/><stop offset="1" stop-color="#e8975b"/></linearGradient><radialGradient id="Áåçûìÿííûé_ãðàäèåíò_223" cx="70.56" cy="52.86" r="108.16" gradientUnits="userSpaceOnUse"><stop offset="0" stop-color="#e39a65"/><stop offset="0.25" stop-color="#a92ffb"/><stop offset="0.74" stop-color="#3919bb"/></radialGradient><linearGradient id="Áåçûìÿííûé_ãðàäèåíò_193-2" x1="103.8" y1="79.88" x2="112.2" y2="79.88" xlink:href="#Áåçûìÿííûé_ãðàäèåíò_193"/></defs><title>Artboard 95 copy 12</title><path class="cls-1" d="M422.18,279a7,7,0,0,1-3.48-.93L407,271.25a2.18,2.18,0,0,1,0-3.76l11.74-6.78a7,7,0,0,1,7,0l11.74,6.78a2.17,2.17,0,0,1,0,3.76L425.66,278A6.93,6.93,0,0,1,422.18,279Zm0-17.32a5.15,5.15,0,0,0-2.55.68l-11.74,6.78a.32.32,0,0,0,0,.54l11.74,6.78h0a5.15,5.15,0,0,0,5.1,0l11.74-6.78a.31.31,0,0,0,0-.54l-11.74-6.78A5.13,5.13,0,0,0,422.18,261.64Z"/><path class="cls-2" d="M388.61,240.51A11.36,11.36,0,0,1,383,239l-20.2-11.67a3.06,3.06,0,0,1,0-5.31L383,210.36a11.31,11.31,0,0,1,11.31,0L414.47,222a3.07,3.07,0,0,1,0,5.31L394.27,239A11.37,11.37,0,0,1,388.61,240.51Zm-4.72-3.13a9.44,9.44,0,0,0,9.45,0l20.2-11.66a1.18,1.18,0,0,0,.6-1,1.19,1.19,0,0,0-.6-1.05L393.34,212a9.49,9.49,0,0,0-9.45,0l-20.2,11.66a1.19,1.19,0,0,0-.6,1.05,1.18,1.18,0,0,0,.6,1Z"/><path class="cls-3" d="M27.39,258.86a11.26,11.26,0,0,1-5.65-1.51L1.54,245.69a3.07,3.07,0,0,1,0-5.32l20.2-11.66a11.31,11.31,0,0,1,11.31,0l20.19,11.66a3.07,3.07,0,0,1,0,5.32L33.05,257.35A11.3,11.3,0,0,1,27.39,258.86Zm0-29.8a9.43,9.43,0,0,0-4.72,1.26L2.47,242a1.21,1.21,0,0,0,0,2.1l20.2,11.66h0a9.49,9.49,0,0,0,9.45,0l20.19-11.66a1.21,1.21,0,0,0,0-2.1L32.12,230.32A9.5,9.5,0,0,0,27.39,229.06Z"/><path class="cls-4" d="M231.94,309.73,87.51,226.35c-2.11-1.22-1.84-3.34.59-4.75l92.69-53.51c2.43-1.41,6.11-1.56,8.22-.34l144.43,83.38c2.1,1.22,1.84,3.34-.59,4.74l-92.7,53.52C237.72,310.8,234,311,231.94,309.73Z"/><path class="cls-5" d="M235.25,324.79a9.19,9.19,0,0,1-4.55-1.07h0L65.86,228.55a3.67,3.67,0,0,1-2.08-3.15c0-1.45,1-2.86,2.76-3.87L178.9,155.7c3.08-1.78,7.61-1.95,10.31-.39l164.84,95.17a3.68,3.68,0,0,1,2.09,3.15c0,1.45-1,2.86-2.77,3.87L241,323.33A11.71,11.71,0,0,1,235.25,324.79ZM184.69,156.11a10,10,0,0,0-4.85,1.2L67.47,223.14c-1.15.66-1.83,1.51-1.83,2.26a2,2,0,0,0,1.15,1.54l164.84,95.17h0c2.11,1.22,6,1,8.44-.39l112.37-65.83c1.15-.66,1.83-1.51,1.83-2.26a2,2,0,0,0-1.15-1.54L188.28,156.92A7.38,7.38,0,0,0,184.69,156.11Z"/><path class="cls-6" d="M371.81,111.33l-143.87-83a3.71,3.71,0,0,0-2.93-.43h0l-2.66.93.94.22a4.6,4.6,0,0,0-.88,1.64L189.86,136.28a6.36,6.36,0,0,0,2.63,7.11l143.86,83.06a4.29,4.29,0,0,0,1.06.43l-.35.78,2.54-.89h0a4,4,0,0,0,2.31-2.69l32.53-105.63A6.37,6.37,0,0,0,371.81,111.33Z"/><path class="cls-7" d="M331.21,230.4l.05.06-142.1-82c-2.09-1.21-5.74-1.06-8.16.33l-91.81,53-3.06-1.17.86,4.3h0a2.54,2.54,0,0,0,1.37,1.72l143.42,82.8c2.09,1.21,5.74,1.06,8.15-.34l92-53.14a3.65,3.65,0,0,0,1.95-2.27h0l.88-4.18Z"/><path class="cls-8" d="M231.94,285.62,87.51,202.24c-2.11-1.22-1.84-3.34.59-4.75L180.79,144c2.43-1.41,6.11-1.56,8.22-.34L333.44,227c2.1,1.22,1.84,3.34-.59,4.74l-92.7,53.52C237.72,286.69,234,286.84,231.94,285.62Z"/><path class="cls-9" d="M332.85,230.64l-92.7,53.52c-2.43,1.4-6.11,1.55-8.21.34L87.51,201.11a2.71,2.71,0,0,1-1.32-1.5,2.27,2.27,0,0,0,1.32,2.63l144.43,83.38c2.1,1.22,5.78,1.07,8.21-.34l92.7-53.52c1.6-.92,2.24-2.16,1.9-3.24A3.84,3.84,0,0,1,332.85,230.64Z"/><g class="cls-10"><path class="cls-11" d="M156.4,188.7l-4.88-2.81c-.39-.23-.34-.62.11-.88l5.76-3.33a1.69,1.69,0,0,1,1.53-.06l4.87,2.82c.39.22.34.62-.11.88l-5.75,3.32A1.69,1.69,0,0,1,156.4,188.7Z"/><path class="cls-11" d="M163.93,193.05l-4.88-2.81c-.39-.23-.34-.62.11-.89l5.76-3.32a1.69,1.69,0,0,1,1.53-.06l4.87,2.81c.39.23.34.62-.11.89L165.46,193A1.69,1.69,0,0,1,163.93,193.05Z"/><path class="cls-11" d="M171.46,197.4l-4.88-2.82c-.39-.22-.34-.62.11-.88l5.76-3.32a1.69,1.69,0,0,1,1.53-.06l4.87,2.81c.39.23.34.62-.11.88L173,197.34A1.69,1.69,0,0,1,171.46,197.4Z"/><path class="cls-11" d="M181.87,193.81,177,191c-.39-.22-.34-.62.11-.88l4.83-2.79a1.69,1.69,0,0,1,1.53-.06l4.87,2.81c.39.23.34.63-.11.89l-4.83,2.79A1.72,1.72,0,0,1,181.87,193.81Z"/><path class="cls-11" d="M189.4,198.16l-4.87-2.82c-.39-.22-.34-.62.11-.88l4.83-2.79a1.69,1.69,0,0,1,1.53-.06l4.87,2.81c.39.23.35.62-.11.88l-4.83,2.79A1.73,1.73,0,0,1,189.4,198.16Z"/><path class="cls-11" d="M196.93,202.5l-4.87-2.81c-.39-.23-.34-.62.11-.88L197,196a1.73,1.73,0,0,1,1.53-.07l4.87,2.82c.39.23.35.62-.11.88l-4.83,2.79A1.69,1.69,0,0,1,196.93,202.5Z"/><path class="cls-11" d="M204.46,206.85,199.59,204c-.39-.23-.34-.62.11-.89l4.83-2.78a1.7,1.7,0,0,1,1.53-.07l4.87,2.82c.39.22.35.62-.11.88L206,206.79A1.69,1.69,0,0,1,204.46,206.85Z"/><path class="cls-11" d="M212,211.2l-4.87-2.82c-.39-.22-.34-.62.11-.88l4.83-2.79a1.69,1.69,0,0,1,1.53-.06l4.87,2.81c.4.23.35.63-.11.89l-4.83,2.79A1.69,1.69,0,0,1,212,211.2Z"/><path class="cls-11" d="M219.53,215.55l-4.88-2.82c-.39-.22-.34-.62.11-.88l4.83-2.79a1.69,1.69,0,0,1,1.53-.06l4.87,2.81c.4.23.35.62-.11.88l-4.83,2.79A1.71,1.71,0,0,1,219.53,215.55Z"/><path class="cls-11" d="M227.06,219.89l-4.88-2.81c-.39-.23-.34-.62.11-.88l4.83-2.79a1.73,1.73,0,0,1,1.53-.07l4.87,2.82c.4.23.35.62-.11.88l-4.83,2.79A1.67,1.67,0,0,1,227.06,219.89Z"/><path class="cls-11" d="M234.59,224.24l-4.88-2.81c-.39-.23-.34-.62.11-.89l4.83-2.78a1.7,1.7,0,0,1,1.53-.07l4.87,2.82c.4.22.35.62-.11.88l-4.83,2.79A1.67,1.67,0,0,1,234.59,224.24Z"/><path class="cls-11" d="M242.12,228.59l-4.88-2.82c-.39-.22-.34-.62.11-.88l4.83-2.79a1.69,1.69,0,0,1,1.53-.06l4.87,2.81c.4.23.35.63-.11.89l-4.83,2.79A1.67,1.67,0,0,1,242.12,228.59Z"/><path class="cls-11" d="M249.65,232.94l-4.88-2.82c-.39-.22-.34-.62.11-.88l4.83-2.79a1.69,1.69,0,0,1,1.53-.06l4.87,2.81c.4.23.35.62-.1.88l-4.84,2.79A1.67,1.67,0,0,1,249.65,232.94Z"/><path class="cls-11" d="M193,191.75l-4.88-2.81c-.39-.23-.34-.63.11-.89l4.83-2.79a1.69,1.69,0,0,1,1.53-.06l4.88,2.82c.39.22.34.62-.11.88l-4.83,2.79A1.69,1.69,0,0,1,193,191.75Z"/><path class="cls-11" d="M185.33,187.34l-4.88-2.82c-.39-.22-.34-.62.11-.88l4.83-2.79a1.69,1.69,0,0,1,1.53-.06l4.88,2.81c.39.23.34.62-.11.89l-4.84,2.78A1.67,1.67,0,0,1,185.33,187.34Z"/><path class="cls-11" d="M177.67,182.92l-10.5-6.07c-.39-.22-.34-.62.11-.88l4.83-2.79a1.69,1.69,0,0,1,1.53-.06l10.5,6.06c.39.23.34.62-.11.89l-4.83,2.78A1.7,1.7,0,0,1,177.67,182.92Z"/><path class="cls-11" d="M183,177.54l-8.52-4.92c-.39-.22-.34-.62.11-.88l4.83-2.79a1.69,1.69,0,0,1,1.53-.06l8.52,4.92c.39.22.34.62-.11.88l-4.83,2.79A1.69,1.69,0,0,1,183,177.54Z"/><path class="cls-11" d="M200.5,196.1l-4.88-2.82c-.39-.22-.34-.62.11-.88l4.83-2.79a1.69,1.69,0,0,1,1.53-.06l4.88,2.81c.39.23.34.62-.11.89L202,196A1.7,1.7,0,0,1,200.5,196.1Z"/><path class="cls-11" d="M208,200.45l-4.88-2.82c-.39-.23-.34-.62.11-.88l4.83-2.79a1.69,1.69,0,0,1,1.53-.06l4.88,2.81c.39.23.34.62-.11.88l-4.83,2.79A1.73,1.73,0,0,1,208,200.45Z"/><path class="cls-11" d="M215.56,204.79,210.68,202c-.39-.23-.34-.62.11-.88l4.84-2.79a1.71,1.71,0,0,1,1.52-.07l4.88,2.82c.39.22.34.62-.11.88l-4.83,2.79A1.69,1.69,0,0,1,215.56,204.79Z"/><path class="cls-11" d="M223.09,209.14l-4.88-2.81c-.39-.23-.34-.63.11-.89l4.84-2.79a1.67,1.67,0,0,1,1.52-.06l4.88,2.82c.39.22.34.62-.11.88l-4.83,2.79A1.69,1.69,0,0,1,223.09,209.14Z"/><path class="cls-11" d="M230.62,213.49l-4.88-2.82c-.39-.22-.34-.62.11-.88l4.84-2.79a1.67,1.67,0,0,1,1.52-.06l4.88,2.81c.39.23.34.62-.11.89l-4.83,2.79A1.72,1.72,0,0,1,230.62,213.49Z"/><path class="cls-11" d="M238.15,217.84,233.27,215c-.39-.23-.34-.62.11-.88l4.84-2.79a1.67,1.67,0,0,1,1.52-.06l4.88,2.81c.39.23.34.62-.11.88l-4.83,2.79A1.73,1.73,0,0,1,238.15,217.84Z"/><path class="cls-11" d="M245.68,222.18l-4.88-2.81c-.39-.23-.34-.62.11-.88l4.84-2.79a1.71,1.71,0,0,1,1.52-.07l4.88,2.82c.39.23.34.62-.11.88l-4.83,2.79A1.69,1.69,0,0,1,245.68,222.18Z"/><path class="cls-11" d="M253.21,226.53l-4.87-2.81c-.4-.23-.35-.62.1-.89l4.84-2.79a1.7,1.7,0,0,1,1.52-.06l4.88,2.82c.39.22.34.62-.11.88l-4.83,2.79A1.69,1.69,0,0,1,253.21,226.53Z"/><path class="cls-11" d="M260.74,230.88l-4.87-2.82c-.4-.22-.35-.62.11-.88l4.83-2.79a1.67,1.67,0,0,1,1.52-.06l4.88,2.81c.39.23.34.63-.11.89l-4.83,2.79A1.72,1.72,0,0,1,260.74,230.88Z"/><path class="cls-11" d="M274.13,238.61l-10.64-6.14c-.39-.23-.34-.63.11-.89l4.83-2.79a1.69,1.69,0,0,1,1.53-.06l10.64,6.14c.39.23.34.62-.11.89l-4.83,2.78A1.7,1.7,0,0,1,274.13,238.61Z"/><path class="cls-11" d="M288.79,230.14l-9-5.18c-.39-.23-.34-.62.11-.88l4.83-2.79a1.73,1.73,0,0,1,1.53-.07l9,5.19c.39.23.34.62-.11.88l-4.83,2.79A1.69,1.69,0,0,1,288.79,230.14Z"/><path class="cls-11" d="M213.69,195.25l-4.88-2.82c-.39-.22-.34-.62.11-.88l4.83-2.79a1.69,1.69,0,0,1,1.53-.06l4.88,2.81c.39.23.34.62-.11.88l-4.84,2.79A1.67,1.67,0,0,1,213.69,195.25Z"/><path class="cls-11" d="M206,190.79,201.09,188c-.39-.23-.34-.62.11-.89l4.83-2.78a1.7,1.7,0,0,1,1.53-.07l4.88,2.82c.39.22.34.62-.11.88l-4.83,2.79A1.69,1.69,0,0,1,206,190.79Z"/><path class="cls-11" d="M198.25,186.34l-4.87-2.82c-.4-.23-.35-.62.1-.88l4.84-2.79a1.67,1.67,0,0,1,1.52-.06l4.88,2.81c.39.23.34.62-.11.88l-4.83,2.79A1.73,1.73,0,0,1,198.25,186.34Z"/><path class="cls-11" d="M190.53,181.88l-4.87-2.81c-.39-.23-.34-.63.11-.89l4.83-2.79a1.69,1.69,0,0,1,1.53-.06l4.87,2.82c.39.22.34.62-.11.88l-4.83,2.79A1.69,1.69,0,0,1,190.53,181.88Z"/><path class="cls-11" d="M221.22,199.6l-4.88-2.82c-.39-.23-.34-.62.11-.88l4.83-2.79a1.69,1.69,0,0,1,1.53-.06l4.88,2.81c.39.23.34.62-.11.88l-4.84,2.79A1.71,1.71,0,0,1,221.22,199.6Z"/><path class="cls-11" d="M228.75,203.94l-4.88-2.81c-.39-.23-.34-.62.11-.88l4.83-2.79a1.73,1.73,0,0,1,1.53-.07l4.88,2.82c.39.22.34.62-.11.88l-4.84,2.79A1.67,1.67,0,0,1,228.75,203.94Z"/><path class="cls-11" d="M236.28,208.29l-4.88-2.81c-.39-.23-.34-.63.11-.89l4.83-2.79a1.69,1.69,0,0,1,1.53-.06l4.88,2.82c.39.22.34.62-.11.88l-4.84,2.79A1.67,1.67,0,0,1,236.28,208.29Z"/><path class="cls-11" d="M243.81,212.64l-4.88-2.82c-.39-.22-.34-.62.11-.88l4.83-2.79a1.69,1.69,0,0,1,1.53-.06l4.88,2.81c.39.23.34.62-.11.89l-4.83,2.78A1.7,1.7,0,0,1,243.81,212.64Z"/><path class="cls-11" d="M251.34,217l-4.88-2.82c-.39-.23-.34-.62.11-.88l4.83-2.79a1.69,1.69,0,0,1,1.53-.06l4.88,2.81c.39.23.34.62-.11.88l-4.83,2.79A1.73,1.73,0,0,1,251.34,217Z"/><path class="cls-11" d="M258.87,221.33,254,218.52c-.39-.23-.34-.62.11-.88l4.83-2.79a1.73,1.73,0,0,1,1.53-.07l4.88,2.82c.39.22.34.62-.11.88l-4.83,2.79A1.69,1.69,0,0,1,258.87,221.33Z"/><path class="cls-11" d="M266.4,225.68l-4.88-2.81c-.39-.23-.34-.63.11-.89l4.83-2.79a1.69,1.69,0,0,1,1.53-.06l4.88,2.82c.39.22.34.62-.11.88l-4.83,2.79A1.69,1.69,0,0,1,266.4,225.68Z"/><path class="cls-11" d="M273.93,230l-4.88-2.82c-.39-.22-.34-.62.11-.88l4.83-2.79a1.69,1.69,0,0,1,1.53-.06l4.88,2.81c.39.23.34.62-.11.89L275.46,230A1.73,1.73,0,0,1,273.93,230Z"/><path class="cls-11" d="M281.46,234.38l-4.88-2.82c-.39-.23-.34-.62.11-.88l4.83-2.79a1.69,1.69,0,0,1,1.53-.06l4.88,2.81c.39.23.34.62-.11.88L283,234.31A1.73,1.73,0,0,1,281.46,234.38Z"/><path class="cls-11" d="M209.72,184.49l-4.87-2.81c-.4-.23-.35-.62.11-.88l4.83-2.79a1.71,1.71,0,0,1,1.52-.07l4.88,2.82c.39.23.34.62-.11.88l-4.83,2.79A1.69,1.69,0,0,1,209.72,184.49Z"/><path class="cls-11" d="M202.23,180.17l-4.88-2.82c-.39-.22-.34-.62.11-.88l4.83-2.79a1.69,1.69,0,0,1,1.53-.06l4.88,2.81c.39.23.34.62-.11.89l-4.83,2.78A1.7,1.7,0,0,1,202.23,180.17Z"/><path class="cls-11" d="M194.74,175.84,189.86,173c-.39-.23-.34-.62.11-.89l4.83-2.78a1.7,1.7,0,0,1,1.53-.07l4.87,2.82c.4.22.35.62-.11.88l-4.83,2.79A1.67,1.67,0,0,1,194.74,175.84Z"/><path class="cls-11" d="M187.24,171.52l-4.87-2.82c-.39-.23-.35-.62.11-.88l4.83-2.79a1.69,1.69,0,0,1,1.53-.06l4.87,2.81c.39.23.34.62-.11.88l-4.83,2.79A1.73,1.73,0,0,1,187.24,171.52Z"/><path class="cls-11" d="M195,167.07l-4.88-2.82c-.39-.22-.34-.62.11-.88l1.6-.92a1.69,1.69,0,0,1,1.53-.06l4.87,2.81c.39.23.34.62-.11.88l-1.59.92A1.7,1.7,0,0,1,195,167.07Z"/><path class="cls-11" d="M204.73,172.71l-4.88-2.81c-.39-.23-.34-.62.11-.88l1.6-.93a1.67,1.67,0,0,1,1.52-.06l4.88,2.82c.39.22.34.62-.11.88l-1.6.92A1.67,1.67,0,0,1,204.73,172.71Z"/><path class="cls-11" d="M212.19,177l-4.88-2.81c-.39-.23-.34-.63.11-.89l1.6-.92a1.69,1.69,0,0,1,1.53-.06l4.87,2.81c.39.23.34.62-.11.89l-1.59.92A1.69,1.69,0,0,1,212.19,177Z"/><path class="cls-11" d="M219.65,181.33l-4.88-2.82c-.39-.22-.34-.62.11-.88l1.6-.92a1.69,1.69,0,0,1,1.53-.06l4.87,2.81c.4.23.35.62-.11.88l-1.59.93A1.69,1.69,0,0,1,219.65,181.33Z"/><path class="cls-11" d="M227.11,185.64l-4.88-2.82c-.39-.22-.34-.62.11-.88l1.6-.92a1.73,1.73,0,0,1,1.53-.07l4.88,2.82c.39.23.34.62-.11.88l-1.6.92A1.73,1.73,0,0,1,227.11,185.64Z"/><path class="cls-11" d="M268.77,209.69l-4.88-2.82c-.39-.22-.34-.62.11-.88l1.6-.92a1.73,1.73,0,0,1,1.53-.07l4.87,2.82c.39.23.34.62-.11.88l-1.59.92A1.7,1.7,0,0,1,268.77,209.69Z"/><path class="cls-11" d="M276.23,214l-4.88-2.82c-.39-.23-.34-.62.11-.88l1.6-.92a1.73,1.73,0,0,1,1.53-.07l4.87,2.82c.4.22.35.62-.11.88l-1.59.92A1.73,1.73,0,0,1,276.23,214Z"/><path class="cls-11" d="M283.69,218.3l-4.88-2.81c-.39-.23-.34-.62.11-.88l1.6-.93a1.69,1.69,0,0,1,1.53-.06l4.88,2.82c.39.22.34.62-.11.88l-1.6.92A1.69,1.69,0,0,1,283.69,218.3Z"/><path class="cls-11" d="M291.15,222.61l-4.87-2.81c-.4-.23-.35-.62.11-.89L288,218a1.69,1.69,0,0,1,1.53-.06l4.88,2.81c.39.23.34.62-.11.89l-1.6.92A1.69,1.69,0,0,1,291.15,222.61Z"/><path class="cls-11" d="M217.25,188.84,212.38,186c-.4-.23-.35-.62.11-.89l4.83-2.79a1.7,1.7,0,0,1,1.52-.06l4.88,2.82c.39.22.34.62-.11.88l-4.83,2.79A1.69,1.69,0,0,1,217.25,188.84Z"/><path class="cls-11" d="M224.78,193.19l-4.87-2.82c-.4-.22-.35-.62.11-.88l4.83-2.79a1.67,1.67,0,0,1,1.52-.06l4.88,2.81c.39.23.34.63-.11.89l-4.83,2.79A1.69,1.69,0,0,1,224.78,193.19Z"/><path class="cls-11" d="M232.31,197.54l-4.87-2.82c-.4-.22-.35-.62.11-.88l4.83-2.79a1.67,1.67,0,0,1,1.52-.06l4.88,2.81c.39.23.34.62-.11.88l-4.83,2.79A1.73,1.73,0,0,1,232.31,197.54Z"/><path class="cls-11" d="M239.84,201.88,235,199.07c-.4-.23-.35-.62.11-.88l4.83-2.79a1.73,1.73,0,0,1,1.53-.07l4.87,2.82c.39.23.34.62-.11.88l-4.83,2.79A1.69,1.69,0,0,1,239.84,201.88Z"/><path class="cls-11" d="M247.37,206.23l-4.87-2.81c-.39-.23-.35-.62.11-.89l4.83-2.78a1.69,1.69,0,0,1,1.53-.07l4.87,2.82c.39.22.34.62-.11.88l-4.83,2.79A1.69,1.69,0,0,1,247.37,206.23Z"/><path class="cls-11" d="M254.9,210.58,250,207.76c-.39-.22-.35-.62.11-.88l4.83-2.79a1.69,1.69,0,0,1,1.53-.06l4.87,2.81c.39.23.34.63-.11.89l-4.83,2.79A1.69,1.69,0,0,1,254.9,210.58Z"/><path class="cls-11" d="M262.43,214.93l-4.87-2.82c-.39-.22-.35-.62.11-.88l4.83-2.79a1.69,1.69,0,0,1,1.53-.06l4.87,2.81c.39.23.34.62-.11.88L264,214.86A1.73,1.73,0,0,1,262.43,214.93Z"/><path class="cls-11" d="M270,219.27l-4.87-2.81c-.39-.23-.34-.62.11-.88l4.83-2.79a1.73,1.73,0,0,1,1.53-.07l4.87,2.82c.39.23.34.62-.11.88l-4.83,2.79A1.69,1.69,0,0,1,270,219.27Z"/><path class="cls-11" d="M277.49,223.62l-4.87-2.81c-.39-.23-.34-.62.11-.88l4.83-2.79a1.69,1.69,0,0,1,1.53-.07l4.87,2.82c.39.22.34.62-.11.88L279,223.56A1.69,1.69,0,0,1,277.49,223.62Z"/><path class="cls-11" d="M174.2,189.38l-14.36-8.29c-.39-.23-.34-.62.11-.88l4.83-2.79a1.7,1.7,0,0,1,1.53-.07l14.36,8.29c.39.23.34.62-.11.89l-4.83,2.79A1.72,1.72,0,0,1,174.2,189.38Z"/><path class="cls-11" d="M266.71,242.79l-14.36-8.29c-.39-.23-.34-.62.11-.88l4.83-2.79a1.73,1.73,0,0,1,1.53-.07l14.36,8.3c.39.22.34.62-.11.88l-4.83,2.79A1.69,1.69,0,0,1,266.71,242.79Z"/><path class="cls-11" d="M236.6,235l-4.88-2.82c-.39-.22-.34-.62.11-.88l5.76-3.32a1.71,1.71,0,0,1,1.52-.07l4.88,2.82c.39.22.34.62-.11.88l-5.76,3.32A1.71,1.71,0,0,1,236.6,235Z"/><path class="cls-11" d="M181.91,203.43l-7.8-4.5c-.39-.22-.34-.62.11-.88l5.76-3.32a1.73,1.73,0,0,1,1.53-.07l7.79,4.51c.4.22.35.62-.11.88l-5.75,3.32A1.69,1.69,0,0,1,181.91,203.43Z"/><path class="cls-11" d="M229.34,230.82l-7.8-4.5c-.39-.23-.34-.63.11-.89l5.76-3.32a1.69,1.69,0,0,1,1.53-.06l7.79,4.5c.4.23.35.62-.11.88l-5.75,3.32A1.7,1.7,0,0,1,229.34,230.82Z"/><path class="cls-11" d="M192.78,209.71,185,205.2c-.39-.22-.34-.62.11-.88l5.75-3.32a1.69,1.69,0,0,1,1.53-.06l7.8,4.5c.39.22.34.62-.11.88l-5.76,3.32A1.71,1.71,0,0,1,192.78,209.71Z"/><path class="cls-11" d="M192.42,201l33.91,19.57a.46.46,0,0,1,0,.88l-5.87,3.39a1.69,1.69,0,0,1-1.52,0L185,205.23Z"/><path class="cls-11" d="M257.64,242.89l5.43,3.14c.32.18.28.5-.09.72l-2.35,1.36a1.42,1.42,0,0,1-1.25,0L254,245c-.32-.18-.28-.51.09-.72l2.35-1.36A1.38,1.38,0,0,1,257.64,242.89Z"/><path class="cls-11" d="M250.05,238.51l5.43,3.13c.32.19.28.51-.09.72L253,243.72a1.41,1.41,0,0,1-1.26.06l-5.43-3.14c-.32-.19-.28-.51.09-.72l2.36-1.36A1.35,1.35,0,0,1,250.05,238.51Z"/><path class="cls-11" d="M242.52,234.16l5.43,3.13c.32.19.28.51-.09.73l-2.35,1.36a1.44,1.44,0,0,1-1.26.05l-5.43-3.14c-.32-.18-.28-.51.09-.72l2.36-1.36A1.38,1.38,0,0,1,242.52,234.16Z"/><path class="cls-11" d="M254.21,236.1l5.43,3.14c.32.19.28.51-.09.72l-2.35,1.36a1.38,1.38,0,0,1-1.26.05l-5.43-3.13c-.32-.19-.28-.51.09-.72l2.36-1.36A1.39,1.39,0,0,1,254.21,236.1Z"/></g><g class="cls-10"><path class="cls-11" d="M156.4,188.7l-4.88-2.81c-.39-.23-.34-.62.11-.88l5.76-3.33a1.69,1.69,0,0,1,1.53-.06l4.87,2.82c.39.22.34.62-.11.88l-5.75,3.32A1.69,1.69,0,0,1,156.4,188.7Z"/><path class="cls-11" d="M163.93,193.05l-4.88-2.81c-.39-.23-.34-.62.11-.89l5.76-3.32a1.69,1.69,0,0,1,1.53-.06l4.87,2.81c.39.23.34.62-.11.89L165.46,193A1.69,1.69,0,0,1,163.93,193.05Z"/><path class="cls-11" d="M171.46,197.4l-4.88-2.82c-.39-.22-.34-.62.11-.88l5.76-3.32a1.69,1.69,0,0,1,1.53-.06l4.87,2.81c.39.23.34.62-.11.88L173,197.34A1.69,1.69,0,0,1,171.46,197.4Z"/><path class="cls-11" d="M181.87,193.81,177,191c-.39-.22-.34-.62.11-.88l4.83-2.79a1.69,1.69,0,0,1,1.53-.06l4.87,2.81c.39.23.34.63-.11.89l-4.83,2.79A1.72,1.72,0,0,1,181.87,193.81Z"/><path class="cls-11" d="M189.4,198.16l-4.87-2.82c-.39-.22-.34-.62.11-.88l4.83-2.79a1.69,1.69,0,0,1,1.53-.06l4.87,2.81c.39.23.35.62-.11.88l-4.83,2.79A1.73,1.73,0,0,1,189.4,198.16Z"/><path class="cls-11" d="M196.93,202.5l-4.87-2.81c-.39-.23-.34-.62.11-.88L197,196a1.73,1.73,0,0,1,1.53-.07l4.87,2.82c.39.23.35.62-.11.88l-4.83,2.79A1.69,1.69,0,0,1,196.93,202.5Z"/><path class="cls-11" d="M204.46,206.85,199.59,204c-.39-.23-.34-.62.11-.89l4.83-2.78a1.7,1.7,0,0,1,1.53-.07l4.87,2.82c.39.22.35.62-.11.88L206,206.79A1.69,1.69,0,0,1,204.46,206.85Z"/><path class="cls-11" d="M212,211.2l-4.87-2.82c-.39-.22-.34-.62.11-.88l4.83-2.79a1.69,1.69,0,0,1,1.53-.06l4.87,2.81c.4.23.35.63-.11.89l-4.83,2.79A1.69,1.69,0,0,1,212,211.2Z"/><path class="cls-11" d="M219.53,215.55l-4.88-2.82c-.39-.22-.34-.62.11-.88l4.83-2.79a1.69,1.69,0,0,1,1.53-.06l4.87,2.81c.4.23.35.62-.11.88l-4.83,2.79A1.71,1.71,0,0,1,219.53,215.55Z"/><path class="cls-11" d="M227.06,219.89l-4.88-2.81c-.39-.23-.34-.62.11-.88l4.83-2.79a1.73,1.73,0,0,1,1.53-.07l4.87,2.82c.4.23.35.62-.11.88l-4.83,2.79A1.67,1.67,0,0,1,227.06,219.89Z"/><path class="cls-11" d="M234.59,224.24l-4.88-2.81c-.39-.23-.34-.62.11-.89l4.83-2.78a1.7,1.7,0,0,1,1.53-.07l4.87,2.82c.4.22.35.62-.11.88l-4.83,2.79A1.67,1.67,0,0,1,234.59,224.24Z"/><path class="cls-11" d="M242.12,228.59l-4.88-2.82c-.39-.22-.34-.62.11-.88l4.83-2.79a1.69,1.69,0,0,1,1.53-.06l4.87,2.81c.4.23.35.63-.11.89l-4.83,2.79A1.67,1.67,0,0,1,242.12,228.59Z"/><path class="cls-11" d="M249.65,232.94l-4.88-2.82c-.39-.22-.34-.62.11-.88l4.83-2.79a1.69,1.69,0,0,1,1.53-.06l4.87,2.81c.4.23.35.62-.1.88l-4.84,2.79A1.67,1.67,0,0,1,249.65,232.94Z"/><path class="cls-11" d="M193,191.75l-4.88-2.81c-.39-.23-.34-.63.11-.89l4.83-2.79a1.69,1.69,0,0,1,1.53-.06l4.88,2.82c.39.22.34.62-.11.88l-4.83,2.79A1.69,1.69,0,0,1,193,191.75Z"/><path class="cls-11" d="M185.33,187.34l-4.88-2.82c-.39-.22-.34-.62.11-.88l4.83-2.79a1.69,1.69,0,0,1,1.53-.06l4.88,2.81c.39.23.34.62-.11.89l-4.84,2.78A1.67,1.67,0,0,1,185.33,187.34Z"/><path class="cls-11" d="M177.67,182.92l-10.5-6.07c-.39-.22-.34-.62.11-.88l4.83-2.79a1.69,1.69,0,0,1,1.53-.06l10.5,6.06c.39.23.34.62-.11.89l-4.83,2.78A1.7,1.7,0,0,1,177.67,182.92Z"/><path class="cls-11" d="M183,177.54l-8.52-4.92c-.39-.22-.34-.62.11-.88l4.83-2.79a1.69,1.69,0,0,1,1.53-.06l8.52,4.92c.39.22.34.62-.11.88l-4.83,2.79A1.69,1.69,0,0,1,183,177.54Z"/><path class="cls-11" d="M200.5,196.1l-4.88-2.82c-.39-.22-.34-.62.11-.88l4.83-2.79a1.69,1.69,0,0,1,1.53-.06l4.88,2.81c.39.23.34.62-.11.89L202,196A1.7,1.7,0,0,1,200.5,196.1Z"/><path class="cls-11" d="M208,200.45l-4.88-2.82c-.39-.23-.34-.62.11-.88l4.83-2.79a1.69,1.69,0,0,1,1.53-.06l4.88,2.81c.39.23.34.62-.11.88l-4.83,2.79A1.73,1.73,0,0,1,208,200.45Z"/><path class="cls-11" d="M215.56,204.79,210.68,202c-.39-.23-.34-.62.11-.88l4.84-2.79a1.71,1.71,0,0,1,1.52-.07l4.88,2.82c.39.22.34.62-.11.88l-4.83,2.79A1.69,1.69,0,0,1,215.56,204.79Z"/><path class="cls-11" d="M223.09,209.14l-4.88-2.81c-.39-.23-.34-.63.11-.89l4.84-2.79a1.67,1.67,0,0,1,1.52-.06l4.88,2.82c.39.22.34.62-.11.88l-4.83,2.79A1.69,1.69,0,0,1,223.09,209.14Z"/><path class="cls-11" d="M230.62,213.49l-4.88-2.82c-.39-.22-.34-.62.11-.88l4.84-2.79a1.67,1.67,0,0,1,1.52-.06l4.88,2.81c.39.23.34.62-.11.89l-4.83,2.79A1.72,1.72,0,0,1,230.62,213.49Z"/><path class="cls-11" d="M238.15,217.84,233.27,215c-.39-.23-.34-.62.11-.88l4.84-2.79a1.67,1.67,0,0,1,1.52-.06l4.88,2.81c.39.23.34.62-.11.88l-4.83,2.79A1.73,1.73,0,0,1,238.15,217.84Z"/><path class="cls-11" d="M245.68,222.18l-4.88-2.81c-.39-.23-.34-.62.11-.88l4.84-2.79a1.71,1.71,0,0,1,1.52-.07l4.88,2.82c.39.23.34.62-.11.88l-4.83,2.79A1.69,1.69,0,0,1,245.68,222.18Z"/><path class="cls-11" d="M253.21,226.53l-4.87-2.81c-.4-.23-.35-.62.1-.89l4.84-2.79a1.7,1.7,0,0,1,1.52-.06l4.88,2.82c.39.22.34.62-.11.88l-4.83,2.79A1.69,1.69,0,0,1,253.21,226.53Z"/><path class="cls-11" d="M260.74,230.88l-4.87-2.82c-.4-.22-.35-.62.11-.88l4.83-2.79a1.67,1.67,0,0,1,1.52-.06l4.88,2.81c.39.23.34.63-.11.89l-4.83,2.79A1.72,1.72,0,0,1,260.74,230.88Z"/><path class="cls-11" d="M274.13,238.61l-10.64-6.14c-.39-.23-.34-.63.11-.89l4.83-2.79a1.69,1.69,0,0,1,1.53-.06l10.64,6.14c.39.23.34.62-.11.89l-4.83,2.78A1.7,1.7,0,0,1,274.13,238.61Z"/><path class="cls-11" d="M288.79,230.14l-9-5.18c-.39-.23-.34-.62.11-.88l4.83-2.79a1.73,1.73,0,0,1,1.53-.07l9,5.19c.39.23.34.62-.11.88l-4.83,2.79A1.69,1.69,0,0,1,288.79,230.14Z"/><path class="cls-11" d="M213.69,195.25l-4.88-2.82c-.39-.22-.34-.62.11-.88l4.83-2.79a1.69,1.69,0,0,1,1.53-.06l4.88,2.81c.39.23.34.62-.11.88l-4.84,2.79A1.67,1.67,0,0,1,213.69,195.25Z"/><path class="cls-11" d="M206,190.79,201.09,188c-.39-.23-.34-.62.11-.89l4.83-2.78a1.7,1.7,0,0,1,1.53-.07l4.88,2.82c.39.22.34.62-.11.88l-4.83,2.79A1.69,1.69,0,0,1,206,190.79Z"/><path class="cls-11" d="M198.25,186.34l-4.87-2.82c-.4-.23-.35-.62.1-.88l4.84-2.79a1.67,1.67,0,0,1,1.52-.06l4.88,2.81c.39.23.34.62-.11.88l-4.83,2.79A1.73,1.73,0,0,1,198.25,186.34Z"/><path class="cls-11" d="M190.53,181.88l-4.87-2.81c-.39-.23-.34-.63.11-.89l4.83-2.79a1.69,1.69,0,0,1,1.53-.06l4.87,2.82c.39.22.34.62-.11.88l-4.83,2.79A1.69,1.69,0,0,1,190.53,181.88Z"/><path class="cls-11" d="M221.22,199.6l-4.88-2.82c-.39-.23-.34-.62.11-.88l4.83-2.79a1.69,1.69,0,0,1,1.53-.06l4.88,2.81c.39.23.34.62-.11.88l-4.84,2.79A1.71,1.71,0,0,1,221.22,199.6Z"/><path class="cls-11" d="M228.75,203.94l-4.88-2.81c-.39-.23-.34-.62.11-.88l4.83-2.79a1.73,1.73,0,0,1,1.53-.07l4.88,2.82c.39.22.34.62-.11.88l-4.84,2.79A1.67,1.67,0,0,1,228.75,203.94Z"/><path class="cls-11" d="M236.28,208.29l-4.88-2.81c-.39-.23-.34-.63.11-.89l4.83-2.79a1.69,1.69,0,0,1,1.53-.06l4.88,2.82c.39.22.34.62-.11.88l-4.84,2.79A1.67,1.67,0,0,1,236.28,208.29Z"/><path class="cls-11" d="M243.81,212.64l-4.88-2.82c-.39-.22-.34-.62.11-.88l4.83-2.79a1.69,1.69,0,0,1,1.53-.06l4.88,2.81c.39.23.34.62-.11.89l-4.83,2.78A1.7,1.7,0,0,1,243.81,212.64Z"/><path class="cls-11" d="M251.34,217l-4.88-2.82c-.39-.23-.34-.62.11-.88l4.83-2.79a1.69,1.69,0,0,1,1.53-.06l4.88,2.81c.39.23.34.62-.11.88l-4.83,2.79A1.73,1.73,0,0,1,251.34,217Z"/><path class="cls-11" d="M258.87,221.33,254,218.52c-.39-.23-.34-.62.11-.88l4.83-2.79a1.73,1.73,0,0,1,1.53-.07l4.88,2.82c.39.22.34.62-.11.88l-4.83,2.79A1.69,1.69,0,0,1,258.87,221.33Z"/><path class="cls-11" d="M266.4,225.68l-4.88-2.81c-.39-.23-.34-.63.11-.89l4.83-2.79a1.69,1.69,0,0,1,1.53-.06l4.88,2.82c.39.22.34.62-.11.88l-4.83,2.79A1.69,1.69,0,0,1,266.4,225.68Z"/><path class="cls-11" d="M273.93,230l-4.88-2.82c-.39-.22-.34-.62.11-.88l4.83-2.79a1.69,1.69,0,0,1,1.53-.06l4.88,2.81c.39.23.34.62-.11.89L275.46,230A1.73,1.73,0,0,1,273.93,230Z"/><path class="cls-11" d="M281.46,234.38l-4.88-2.82c-.39-.23-.34-.62.11-.88l4.83-2.79a1.69,1.69,0,0,1,1.53-.06l4.88,2.81c.39.23.34.62-.11.88L283,234.31A1.73,1.73,0,0,1,281.46,234.38Z"/><path class="cls-11" d="M209.72,184.49l-4.87-2.81c-.4-.23-.35-.62.11-.88l4.83-2.79a1.71,1.71,0,0,1,1.52-.07l4.88,2.82c.39.23.34.62-.11.88l-4.83,2.79A1.69,1.69,0,0,1,209.72,184.49Z"/><path class="cls-11" d="M202.23,180.17l-4.88-2.82c-.39-.22-.34-.62.11-.88l4.83-2.79a1.69,1.69,0,0,1,1.53-.06l4.88,2.81c.39.23.34.62-.11.89l-4.83,2.78A1.7,1.7,0,0,1,202.23,180.17Z"/><path class="cls-11" d="M194.74,175.84,189.86,173c-.39-.23-.34-.62.11-.89l4.83-2.78a1.7,1.7,0,0,1,1.53-.07l4.87,2.82c.4.22.35.62-.11.88l-4.83,2.79A1.67,1.67,0,0,1,194.74,175.84Z"/><path class="cls-11" d="M187.24,171.52l-4.87-2.82c-.39-.23-.35-.62.11-.88l4.83-2.79a1.69,1.69,0,0,1,1.53-.06l4.87,2.81c.39.23.34.62-.11.88l-4.83,2.79A1.73,1.73,0,0,1,187.24,171.52Z"/><path class="cls-11" d="M195,167.07l-4.88-2.82c-.39-.22-.34-.62.11-.88l1.6-.92a1.69,1.69,0,0,1,1.53-.06l4.87,2.81c.39.23.34.62-.11.88l-1.59.92A1.7,1.7,0,0,1,195,167.07Z"/><path class="cls-11" d="M204.73,172.71l-4.88-2.81c-.39-.23-.34-.62.11-.88l1.6-.93a1.67,1.67,0,0,1,1.52-.06l4.88,2.82c.39.22.34.62-.11.88l-1.6.92A1.67,1.67,0,0,1,204.73,172.71Z"/><path class="cls-11" d="M212.19,177l-4.88-2.81c-.39-.23-.34-.63.11-.89l1.6-.92a1.69,1.69,0,0,1,1.53-.06l4.87,2.81c.39.23.34.62-.11.89l-1.59.92A1.69,1.69,0,0,1,212.19,177Z"/><path class="cls-11" d="M219.65,181.33l-4.88-2.82c-.39-.22-.34-.62.11-.88l1.6-.92a1.69,1.69,0,0,1,1.53-.06l4.87,2.81c.4.23.35.62-.11.88l-1.59.93A1.69,1.69,0,0,1,219.65,181.33Z"/><path class="cls-11" d="M227.11,185.64l-4.88-2.82c-.39-.22-.34-.62.11-.88l1.6-.92a1.73,1.73,0,0,1,1.53-.07l4.88,2.82c.39.23.34.62-.11.88l-1.6.92A1.73,1.73,0,0,1,227.11,185.64Z"/><path class="cls-11" d="M268.77,209.69l-4.88-2.82c-.39-.22-.34-.62.11-.88l1.6-.92a1.73,1.73,0,0,1,1.53-.07l4.87,2.82c.39.23.34.62-.11.88l-1.59.92A1.7,1.7,0,0,1,268.77,209.69Z"/><path class="cls-11" d="M276.23,214l-4.88-2.82c-.39-.23-.34-.62.11-.88l1.6-.92a1.73,1.73,0,0,1,1.53-.07l4.87,2.82c.4.22.35.62-.11.88l-1.59.92A1.73,1.73,0,0,1,276.23,214Z"/><path class="cls-11" d="M283.69,218.3l-4.88-2.81c-.39-.23-.34-.62.11-.88l1.6-.93a1.69,1.69,0,0,1,1.53-.06l4.88,2.82c.39.22.34.62-.11.88l-1.6.92A1.69,1.69,0,0,1,283.69,218.3Z"/><path class="cls-11" d="M291.15,222.61l-4.87-2.81c-.4-.23-.35-.62.11-.89L288,218a1.69,1.69,0,0,1,1.53-.06l4.88,2.81c.39.23.34.62-.11.89l-1.6.92A1.69,1.69,0,0,1,291.15,222.61Z"/><path class="cls-11" d="M217.25,188.84,212.38,186c-.4-.23-.35-.62.11-.89l4.83-2.79a1.7,1.7,0,0,1,1.52-.06l4.88,2.82c.39.22.34.62-.11.88l-4.83,2.79A1.69,1.69,0,0,1,217.25,188.84Z"/><path class="cls-11" d="M224.78,193.19l-4.87-2.82c-.4-.22-.35-.62.11-.88l4.83-2.79a1.67,1.67,0,0,1,1.52-.06l4.88,2.81c.39.23.34.63-.11.89l-4.83,2.79A1.69,1.69,0,0,1,224.78,193.19Z"/><path class="cls-11" d="M232.31,197.54l-4.87-2.82c-.4-.22-.35-.62.11-.88l4.83-2.79a1.67,1.67,0,0,1,1.52-.06l4.88,2.81c.39.23.34.62-.11.88l-4.83,2.79A1.73,1.73,0,0,1,232.31,197.54Z"/><path class="cls-11" d="M239.84,201.88,235,199.07c-.4-.23-.35-.62.11-.88l4.83-2.79a1.73,1.73,0,0,1,1.53-.07l4.87,2.82c.39.23.34.62-.11.88l-4.83,2.79A1.69,1.69,0,0,1,239.84,201.88Z"/><path class="cls-11" d="M247.37,206.23l-4.87-2.81c-.39-.23-.35-.62.11-.89l4.83-2.78a1.69,1.69,0,0,1,1.53-.07l4.87,2.82c.39.22.34.62-.11.88l-4.83,2.79A1.69,1.69,0,0,1,247.37,206.23Z"/><path class="cls-11" d="M254.9,210.58,250,207.76c-.39-.22-.35-.62.11-.88l4.83-2.79a1.69,1.69,0,0,1,1.53-.06l4.87,2.81c.39.23.34.63-.11.89l-4.83,2.79A1.69,1.69,0,0,1,254.9,210.58Z"/><path class="cls-11" d="M262.43,214.93l-4.87-2.82c-.39-.22-.35-.62.11-.88l4.83-2.79a1.69,1.69,0,0,1,1.53-.06l4.87,2.81c.39.23.34.62-.11.88L264,214.86A1.73,1.73,0,0,1,262.43,214.93Z"/><path class="cls-11" d="M270,219.27l-4.87-2.81c-.39-.23-.34-.62.11-.88l4.83-2.79a1.73,1.73,0,0,1,1.53-.07l4.87,2.82c.39.23.34.62-.11.88l-4.83,2.79A1.69,1.69,0,0,1,270,219.27Z"/><path class="cls-11" d="M277.49,223.62l-4.87-2.81c-.39-.23-.34-.62.11-.88l4.83-2.79a1.69,1.69,0,0,1,1.53-.07l4.87,2.82c.39.22.34.62-.11.88L279,223.56A1.69,1.69,0,0,1,277.49,223.62Z"/><path class="cls-11" d="M174.2,189.38l-14.36-8.29c-.39-.23-.34-.62.11-.88l4.83-2.79a1.7,1.7,0,0,1,1.53-.07l14.36,8.29c.39.23.34.62-.11.89l-4.83,2.79A1.72,1.72,0,0,1,174.2,189.38Z"/><path class="cls-11" d="M266.71,242.79l-14.36-8.29c-.39-.23-.34-.62.11-.88l4.83-2.79a1.73,1.73,0,0,1,1.53-.07l14.36,8.3c.39.22.34.62-.11.88l-4.83,2.79A1.69,1.69,0,0,1,266.71,242.79Z"/><path class="cls-11" d="M236.6,235l-4.88-2.82c-.39-.22-.34-.62.11-.88l5.76-3.32a1.71,1.71,0,0,1,1.52-.07l4.88,2.82c.39.22.34.62-.11.88l-5.76,3.32A1.71,1.71,0,0,1,236.6,235Z"/><path class="cls-11" d="M181.91,203.43l-7.8-4.5c-.39-.22-.34-.62.11-.88l5.76-3.32a1.73,1.73,0,0,1,1.53-.07l7.79,4.51c.4.22.35.62-.11.88l-5.75,3.32A1.69,1.69,0,0,1,181.91,203.43Z"/><path class="cls-11" d="M229.34,230.82l-7.8-4.5c-.39-.23-.34-.63.11-.89l5.76-3.32a1.69,1.69,0,0,1,1.53-.06l7.79,4.5c.4.23.35.62-.11.88l-5.75,3.32A1.7,1.7,0,0,1,229.34,230.82Z"/><path class="cls-11" d="M192.78,209.71,185,205.2c-.39-.22-.34-.62.11-.88l5.75-3.32a1.69,1.69,0,0,1,1.53-.06l7.8,4.5c.39.22.34.62-.11.88l-5.76,3.32A1.71,1.71,0,0,1,192.78,209.71Z"/><path class="cls-11" d="M192.42,201l33.91,19.57a.46.46,0,0,1,0,.88l-5.87,3.39a1.69,1.69,0,0,1-1.52,0L185,205.23Z"/><path class="cls-11" d="M257.64,242.89l5.43,3.14c.32.18.28.5-.09.72l-2.35,1.36a1.42,1.42,0,0,1-1.25,0L254,245c-.32-.18-.28-.51.09-.72l2.35-1.36A1.38,1.38,0,0,1,257.64,242.89Z"/><path class="cls-11" d="M250.05,238.51l5.43,3.13c.32.19.28.51-.09.72L253,243.72a1.41,1.41,0,0,1-1.26.06l-5.43-3.14c-.32-.19-.28-.51.09-.72l2.36-1.36A1.35,1.35,0,0,1,250.05,238.51Z"/><path class="cls-11" d="M242.52,234.16l5.43,3.13c.32.19.28.51-.09.73l-2.35,1.36a1.44,1.44,0,0,1-1.26.05l-5.43-3.14c-.32-.18-.28-.51.09-.72l2.36-1.36A1.38,1.38,0,0,1,242.52,234.16Z"/><path class="cls-11" d="M254.21,236.1l5.43,3.14c.32.19.28.51-.09.72l-2.35,1.36a1.38,1.38,0,0,1-1.26.05l-5.43-3.13c-.32-.19-.28-.51.09-.72l2.36-1.36A1.39,1.39,0,0,1,254.21,236.1Z"/></g><path class="cls-12" d="M333.9,227.31,190,144.25a6.39,6.39,0,0,1-2.64-7.11L219.94,31.51c.8-2.62,3.29-3.68,5.55-2.38l143.87,83.06A6.37,6.37,0,0,1,372,119.3L339.46,224.93C338.65,227.55,336.17,228.62,333.9,227.31Z"/><path class="cls-13" d="M332.55,223.61,193,143a6.07,6.07,0,0,1-2.52-6.8l31.1-101c.77-2.51,3.15-3.53,5.32-2.28l139.53,80.63a6.09,6.09,0,0,1,2.53,6.8l-31.11,101C337.09,223.84,334.71,224.86,332.55,223.61Z"/><path class="cls-14" d="M332.55,223.61,193,143a6.07,6.07,0,0,1-2.52-6.8l31.1-101c.77-2.51,3.15-3.53,5.32-2.28l139.53,80.63a6.09,6.09,0,0,1,2.53,6.8l-31.11,101C337.09,223.84,334.71,224.86,332.55,223.61Z"/><path class="cls-14" d="M332.55,223.61,193,143a6.07,6.07,0,0,1-2.52-6.8l31.1-101c.77-2.51,3.15-3.53,5.32-2.28l139.53,80.63a6.09,6.09,0,0,1,2.53,6.8l-31.11,101C337.09,223.84,334.71,224.86,332.55,223.61Z"/><path class="cls-15" d="M325.05,192.75l-94.46-54.54a4.17,4.17,0,0,1-1.73-4.66l21.36-69.36a2.42,2.42,0,0,1,3.65-1.56l94.46,54.53a4.19,4.19,0,0,1,1.73,4.67L328.7,191.19A2.42,2.42,0,0,1,325.05,192.75Z"/><path class="cls-16" d="M312.29,194.42l-94.46-54.53a4.18,4.18,0,0,1-1.73-4.67l21.36-69.36a2.42,2.42,0,0,1,3.65-1.56l94.46,54.54a4.18,4.18,0,0,1,1.73,4.66l-21.36,69.36A2.43,2.43,0,0,1,312.29,194.42Z"/><g class="cls-17"><path class="cls-11" d="M312.29,194.42l-94.46-54.53a4.18,4.18,0,0,1-1.73-4.67l21.36-69.36a2.42,2.42,0,0,1,3.65-1.56l94.46,54.54a4.18,4.18,0,0,1,1.73,4.66l-21.36,69.36A2.43,2.43,0,0,1,312.29,194.42Z"/></g><path class="cls-9" d="M335.57,118.84,241.11,64.3a2.36,2.36,0,0,0-2.66.09,2.58,2.58,0,0,1,1.36.35l94.46,54.54a4.17,4.17,0,0,1,1.73,4.66L314.64,193.3a2.88,2.88,0,0,1-1,1.47,2.5,2.5,0,0,0,2.29-1.91L337.3,123.5A4.18,4.18,0,0,0,335.57,118.84Z"/><path class="cls-14" d="M193.15,251.06a7.1,7.1,0,0,1-3.5-.82h0l-37.84-21.85a2.72,2.72,0,0,1-1.56-2.33,3.57,3.57,0,0,1,2.09-2.89l19.48-11.25a8.74,8.74,0,0,1,8-.31l37.84,21.85a2.75,2.75,0,0,1,1.56,2.33,3.58,3.58,0,0,1-2.09,2.9l-19.48,11.25A9.17,9.17,0,0,1,193.15,251.06ZM176.29,211.9a8.08,8.08,0,0,0-3.92,1l-19.48,11.24c-1,.57-1.55,1.28-1.55,1.95a1.75,1.75,0,0,0,1,1.39L190.2,249.3a7.75,7.75,0,0,0,6.86-.31l19.48-11.25c1-.56,1.54-1.27,1.54-2a1.73,1.73,0,0,0-1-1.38l-37.84-21.85A6.08,6.08,0,0,0,176.29,211.9Z"/><path class="cls-9" d="M306.64,113.1l-4.27-2.46a1.12,1.12,0,0,1-.47-1.23h0a.63.63,0,0,1,1-.4l4.27,2.46a1.13,1.13,0,0,1,.47,1.23h0A.63.63,0,0,1,306.64,113.1Z"/><path class="cls-9" d="M314.78,117.8l-4.27-2.46a1.13,1.13,0,0,1-.47-1.23h0a.63.63,0,0,1,1-.4l4.27,2.47a1.1,1.1,0,0,1,.47,1.22h0A.63.63,0,0,1,314.78,117.8Z"/><path class="cls-9" d="M322.93,122.5,318.66,120a1.12,1.12,0,0,1-.48-1.23h0a.63.63,0,0,1,1-.4l4.27,2.47a1.11,1.11,0,0,1,.48,1.22h0A.63.63,0,0,1,322.93,122.5Z"/><path class="cls-18" d="M326.93,124.82l-.13-.08a1.12,1.12,0,0,1-.48-1.23h0a.63.63,0,0,1,1-.4l.13.08a1.12,1.12,0,0,1,.48,1.23h0A.63.63,0,0,1,326.93,124.82Z"/><path class="cls-19" d="M106.61,174.77a15.53,15.53,0,0,1-7.81-2.09h0L70.21,156.17a4,4,0,0,1,0-6.85L98.8,132.81a15.69,15.69,0,0,1,15.63,0L143,149.32a4,4,0,0,1,0,6.86l-28.59,16.5A15.54,15.54,0,0,1,106.61,174.77Zm-6.88-3.7a13.82,13.82,0,0,0,13.77,0l28.59-16.51a2.09,2.09,0,0,0,0-3.63L113.5,134.42a13.82,13.82,0,0,0-13.77,0L71.14,150.93a2.09,2.09,0,0,0,0,3.63Z"/><ellipse class="cls-4" cx="106.47" cy="153.14" rx="19.64" ry="11.34"/><path class="cls-20" d="M135.58,72.32H79.64l5.21,60.57h0c0,3.36,2.22,6.72,6.66,9.29,8.9,5.13,23.31,5.13,32.2,0,4.45-2.57,6.67-5.93,6.67-9.29Z"/><path class="cls-14" d="M135.58,72.32H79.64l.86,10A21.87,21.87,0,0,0,85.68,87C96.37,94,114,95.4,126.05,90.3l-1.86,44.3a8.75,8.75,0,0,1-2,5.28c-1.82,2.13-5.31,4.64-12,6.06a31.53,31.53,0,0,0,13.54-3.76c4.45-2.57,6.67-5.93,6.67-9.29l4.17-48.58h0Z"/><ellipse class="cls-14" cx="107.61" cy="72.32" rx="27.97" ry="16.15"/><ellipse class="cls-14" cx="107.61" cy="66.62" rx="24.09" ry="13.91"/><path class="cls-21" d="M137.24,71.56h0v0s0-.06,0-.08L136.69,66l0,.07c-.24-4.11-3.07-8.17-8.49-11.31-11.36-6.55-29.77-6.55-41.13,0-5.56,3.22-8.39,7.41-8.51,11.62v0L78,71.19a2.45,2.45,0,0,0,0,.38v.08h0c-.3,4.6,2.58,9.26,8.66,12.77,11.58,6.69,30.36,6.69,42,0C134.71,80.88,137.59,76.18,137.24,71.56Z"/><ellipse class="cls-22" cx="107.61" cy="66.62" rx="24.09" ry="13.91"/><ellipse class="cls-23" cx="106.47" cy="66.62" rx="24.09" ry="13.91"/><path class="cls-14" d="M93.44,58.86c9.4-5.43,24.66-5.43,34.07,0l.33.22a18.8,18.8,0,0,0-3.19-2.29c-9.41-5.43-24.66-5.43-34.07,0s-9.39,14-.34,19.45C84.2,70.85,85.26,63.58,93.44,58.86Z"/><path class="cls-24" d="M90.58,59.2c9.41-5.43,24.66-5.43,34.07,0,4.17,2.41,6.49,5.48,7,8.63.59-3.95-1.72-8-7-11-9.41-5.43-24.66-5.43-34.07,0-5.24,3-7.56,7.09-7,11C84.09,64.68,86.41,61.61,90.58,59.2Z"/><path class="cls-25" d="M128.36,54.89c-11.34-6.68-29.82-6.84-41.28-.36s-11.55,17.15-.21,23.83,29.82,6.84,41.28.36S139.7,61.57,128.36,54.89Zm-3.71,21.57a31.4,31.4,0,0,1-11,3.61l-.43-1.44a1.37,1.37,0,0,0-1.32-1h-8.65a1.37,1.37,0,0,0-1.32,1l-.44,1.44a31.41,31.41,0,0,1-11-3.61c-9.41-5.43-9.41-14.24,0-19.67s24.66-5.43,34.07,0S134.06,71,124.65,76.46Z"/><path class="cls-9" d="M124.65,55.76c-9.41-5.43-24.66-5.43-34.07,0-4.93,2.85-7.28,6.62-7,10.35.22-3.39,2.56-6.74,7-9.32,9.41-5.43,24.66-5.43,34.07,0,4.48,2.58,6.82,5.93,7,9.32C131.92,62.38,129.58,58.61,124.65,55.76Z"/><path class="cls-9" d="M128.15,77.69c-11.46,6.48-29.94,6.32-41.28-.36-5.4-3.18-8.2-7.26-8.42-11.37-.23,4.45,2.57,9,8.42,12.4,11.34,6.68,29.82,6.84,41.28.36,6-3.4,8.88-7.94,8.63-12.46C136.57,70.43,133.7,74.55,128.15,77.69Z"/><rect class="cls-26" x="104.37" y="79.42" width="6.48" height="1.4" rx="0.65"/><path class="cls-27" d="M110.2,79.42H105a.66.66,0,0,0-.66.65v.1a.53.53,0,0,0,0,.17.65.65,0,0,1,.62-.48h5.17a.65.65,0,0,1,.62.48,1,1,0,0,0,0-.17v-.1A.65.65,0,0,0,110.2,79.42Z"/><path class="cls-28" d="M108.41,126.66a4.47,4.47,0,0,1-8.64-2.29c.63-2.39,2.88-3.06,5.27-2.43S109,124.28,108.41,126.66Z"/><path class="cls-28" d="M111.92,122a2,2,0,1,1-2.76-2.83c.9-.88,2.61-1.32,3.37-.54S112.82,121.08,111.92,122Z"/><path class="cls-28" d="M107.25,118.22a2,2,0,1,1-3.9-.7c.22-1.24,1.36-2.58,2.44-2.39S107.47,117,107.25,118.22Z"/><path class="cls-28" d="M101.49,117.64a2,2,0,1,1-3.66,1.51c-.48-1.16-.24-2.91.77-3.33S101,116.48,101.49,117.64Z"/><path class="cls-29" d="M109.45,80.12s15.64-5.24,9.3-23.21-18.66-23.45-13.69-37.83c0,0-7.79,11.64-.51,27.39s8.87,13.93,8.78,21.47A13.58,13.58,0,0,1,106,80.12Z"/><path class="cls-29" d="M110.85,21.58S109.22,10.83,119.31,0c0,0-8.92,19.92-6,29.75C113.31,29.75,111,23.5,110.85,21.58Z"/><path class="cls-9" d="M262.07,104.53l-5.84-3.37a1.53,1.53,0,0,1-.65-1.68h0a.88.88,0,0,1,1.32-.55l5.84,3.38a1.53,1.53,0,0,1,.65,1.68h0A.87.87,0,0,1,262.07,104.53Z"/><path class="cls-9" d="M276,112.56l-8.61-5a1.53,1.53,0,0,1-.65-1.68h0a.87.87,0,0,1,1.32-.54l8.61,5a1.53,1.53,0,0,1,.65,1.68h0A.87.87,0,0,1,276,112.56Z"/><path class="cls-9" d="M250.39,130.5l-5.83-3.37a1.5,1.5,0,0,1-.65-1.68h0a.87.87,0,0,1,1.31-.55l5.84,3.38a1.52,1.52,0,0,1,.65,1.67h0A.87.87,0,0,1,250.39,130.5Z"/><path class="cls-9" d="M262.8,137.66l-8.62-5a1.51,1.51,0,0,1-.64-1.68h0a.86.86,0,0,1,1.31-.55l8.61,5a1.54,1.54,0,0,1,.65,1.68h0A.86.86,0,0,1,262.8,137.66Z"/><path class="cls-9" d="M241.69,95.54l3.65,2.1a1.52,1.52,0,0,1,.65,1.68h0a.86.86,0,0,1-1.31.55L241,97.76"/><path class="cls-9" d="M255.66,111.67l-11.15-6.43a1.54,1.54,0,0,1-.65-1.68h0a.86.86,0,0,1,1.31-.55l11.15,6.44a1.53,1.53,0,0,1,.65,1.68h0A.86.86,0,0,1,255.66,111.67Z"/><path class="cls-9" d="M245.38,116.67l-3.65-2.11a1.51,1.51,0,0,1-.65-1.68h0a.86.86,0,0,1,1.31-.54l3.65,2.1a1.54,1.54,0,0,1,.65,1.68h0A.86.86,0,0,1,245.38,116.67Z"/><path class="cls-9" d="M264.14,149.37l-9.74-5.63a1.5,1.5,0,0,1-.65-1.68h0a.86.86,0,0,1,1.31-.54l9.74,5.62a1.51,1.51,0,0,1,.65,1.68h0A.86.86,0,0,1,264.14,149.37Z"/><path class="cls-9" d="M241.29,125.24l-2.35-1.35a1.51,1.51,0,0,1-.64-1.68h0a.87.87,0,0,1,1.31-.55L242,123a1.53,1.53,0,0,1,.65,1.68h0A.86.86,0,0,1,241.29,125.24Z"/><path class="cls-9" d="M239.07,134.9l-2.91-1.68a1.54,1.54,0,0,1-.65-1.68h0a.87.87,0,0,1,1.32-.55l2.9,1.68a1.5,1.5,0,0,1,.65,1.68h0A.87.87,0,0,1,239.07,134.9Z"/><path class="cls-9" d="M250.38,141.43,242.72,137a1.5,1.5,0,0,1-.65-1.68h0a.86.86,0,0,1,1.31-.54l7.67,4.42a1.53,1.53,0,0,1,.65,1.68h0A.87.87,0,0,1,250.38,141.43Z"/><path class="cls-9" d="M240.28,141.06l-5.51-3.18a1.53,1.53,0,0,1-.65-1.68h0a.88.88,0,0,1,1.32-.55l5.51,3.19a1.53,1.53,0,0,1,.65,1.68h0A.87.87,0,0,1,240.28,141.06Z"/><path class="cls-9" d="M272.5,154.22l-3.54-2a1.54,1.54,0,0,1-.65-1.68h0a.86.86,0,0,1,1.31-.55l3.54,2a1.52,1.52,0,0,1,.65,1.68h0A.86.86,0,0,1,272.5,154.22Z"/><path class="cls-9" d="M259,124.5l-9.75-5.62a1.53,1.53,0,0,1-.65-1.68h0a.87.87,0,0,1,1.32-.55l9.74,5.63a1.53,1.53,0,0,1,.65,1.68h0A.86.86,0,0,1,259,124.5Z"/><path class="cls-28" d="M260.1,119.7l-17-9.8a1.53,1.53,0,0,1-.65-1.68h0a.87.87,0,0,1,1.31-.55l17,9.81a1.5,1.5,0,0,1,.65,1.68h0A.86.86,0,0,1,260.1,119.7Z"/><path class="cls-28" d="M250.08,124.85l-9.74-5.62a1.51,1.51,0,0,1-.65-1.68h0A.86.86,0,0,1,241,117l9.74,5.63a1.5,1.5,0,0,1,.65,1.68h0A.86.86,0,0,1,250.08,124.85Z"/><path class="cls-28" d="M266.34,128.77l-3.54-2a1.51,1.51,0,0,1-.65-1.68h0a.86.86,0,0,1,1.31-.55l3.54,2a1.52,1.52,0,0,1,.65,1.67h0A.86.86,0,0,1,266.34,128.77Z"/><path class="cls-28" d="M302.25,127.73l-21-12.11a1.53,1.53,0,0,1-.65-1.68h0a.87.87,0,0,1,1.32-.54l21,12.1a1.52,1.52,0,0,1,.65,1.68h0A.87.87,0,0,1,302.25,127.73Z"/><path class="cls-18" d="M249.27,135.32l-11.72-6.77a1.53,1.53,0,0,1-.65-1.68h0a.87.87,0,0,1,1.32-.54l11.71,6.76a1.53,1.53,0,0,1,.65,1.68h0A.87.87,0,0,1,249.27,135.32Z"/><path class="cls-18" d="M243,90.9l8.61,5a1.54,1.54,0,0,1,.65,1.68h0a.87.87,0,0,1-1.32.55l-8.61-5"/><path class="cls-28" d="M264.48,100.46l-10-5.76a1.53,1.53,0,0,1-.65-1.68h0a.86.86,0,0,1,1.31-.55l10,5.76a1.53,1.53,0,0,1,.65,1.68h0A.88.88,0,0,1,264.48,100.46Z"/></svg>