<svg width="80" height="80" viewBox="0 0 80 80" fill="none" xmlns="http://www.w3.org/2000/svg">
<path d="M6.04847 52H24.6876C24.238 48.2094 24 44.1778 24 40C24 35.8222 24.238 31.7906 24.6876 28H6.04847C4.72185 31.7533 4 35.7924 4 40C4 44.2076 4.72185 48.2467 6.04847 52ZM7.74208 56C12.5036 65.5814 21.4083 72.7405 32.112 75.1332C28.9956 70.8911 26.6086 64.1485 25.255 56H7.74208ZM73.9515 52C75.2781 48.2467 76 44.2076 76 40C76 35.7924 75.2781 31.7533 73.9515 28H55.3124C55.762 31.7906 56 35.8222 56 40C56 44.1778 55.762 48.2094 55.3124 52H73.9515ZM72.2579 56H54.745C53.3914 64.1485 51.0044 70.8911 47.888 75.1332C58.5917 72.7405 67.4964 65.5814 72.2579 56ZM28.7376 52H51.2624C51.7361 48.2496 52 44.2113 52 40C52 35.7887 51.7361 31.7504 51.2624 28H28.7376C28.2639 31.7504 28 35.7887 28 40C28 44.2113 28.2639 48.2496 28.7376 52ZM29.3399 56C31.4287 67.8713 35.6723 76 40 76C44.3277 76 48.5713 67.8713 50.6601 56H29.3399ZM7.74208 24H25.255C26.6086 15.8515 28.9956 9.1089 32.112 4.86683C21.4083 7.25953 12.5036 14.4186 7.74208 24ZM72.2579 24C67.4964 14.4186 58.5917 7.25953 47.888 4.86683C51.0044 9.1089 53.3914 15.8515 54.745 24H72.2579ZM29.3399 24H50.6601C48.5713 12.1287 44.3277 4 40 4C35.6723 4 31.4287 12.1287 29.3399 24ZM40 80C17.9086 80 0 62.0914 0 40C0 17.9086 17.9086 0 40 0C62.0914 0 80 17.9086 80 40C80 62.0914 62.0914 80 40 80Z" fill="white"/>
</svg>
