<svg width="200" height="200" viewBox="0 0 200 200" fill="none" xmlns="http://www.w3.org/2000/svg">
<path d="M200 100C200 155.228 155.228 200 100 200C44.7715 200 0 155.228 0 100C0 44.7715 44.7715 0 100 0C155.228 0 200 44.7715 200 100Z" fill="#FEFFE1"/>
<path d="M200 100C200 155.228 155.228 200 100 200C44.7715 200 0 155.228 0 100C0 44.7715 44.7715 0 100 0C155.228 0 200 44.7715 200 100Z" fill="url(#paint0_radial_608_960)"/>
<path d="M200 100C200 155.228 155.228 200 100 200C44.7715 200 0 155.228 0 100C0 44.7715 44.7715 0 100 0C155.228 0 200 44.7715 200 100Z" fill="url(#paint1_radial_608_960)" fill-opacity="0.15"/>
<defs>
<radialGradient id="paint0_radial_608_960" cx="0" cy="0" r="1" gradientUnits="userSpaceOnUse" gradientTransform="translate(106.377 87.5362) rotate(114.522) scale(123.613)">
<stop offset="0.795851" stop-color="#26252F"/>
<stop offset="1" stop-opacity="0"/>
</radialGradient>
<radialGradient id="paint1_radial_608_960" cx="0" cy="0" r="1" gradientUnits="userSpaceOnUse" gradientTransform="translate(123.478 66.6667) rotate(126.042) scale(84.2407 74.9929)">
<stop stop-color="#FFFCC0"/>
<stop offset="1" stop-color="#FFFEE8" stop-opacity="0"/>
</radialGradient>
</defs>
</svg>
