<svg width="767" height="178" viewBox="0 0 767 178" fill="none" xmlns="http://www.w3.org/2000/svg">
<g clip-path="url(#clip0_468_2574)">
<rect x="96.0654" width="236.352" height="28.4043" fill="#FFF962"/>
<rect x="96.0654" width="236.352" height="28.4043" fill="#FFF962"/>
<rect x="169.259" y="100.362" width="236.352" height="28.4043" fill="#FFF962"/>
<rect x="234.827" y="51.1277" width="30.497" height="26.5106" fill="#FFF962"/>
<rect x="397.986" y="51.1277" width="30.497" height="26.5106" fill="#FFF962"/>
<rect x="670.935" y="151.489" width="33.5467" height="26.5106" fill="#FFF962"/>
<rect x="725.829" y="151.489" width="32.0219" height="26.5106" fill="#FFF962"/>
<rect x="678.559" y="100.362" width="88.4414" height="28.4043" fill="#FFF962"/>
<rect x="45.7451" y="100.362" width="88.4414" height="28.4043" fill="#FFF962"/>
<rect x="355.29" width="85.3917" height="28.4043" fill="#A718FF"/>
<rect x="440.682" y="100.362" width="85.3917" height="28.4043" fill="#A718FF"/>
<rect x="297.346" y="51.1277" width="85.3917" height="26.5106" fill="#A718FF"/>
<rect x="457.455" width="85.3917" height="28.4043" fill="#A718FF"/>
<rect y="151.489" width="271.423" height="26.5106" fill="#A718FF"/>
<rect x="1.52441" y="51.1277" width="213.479" height="26.5106" fill="#5660BC"/>
<rect x="440.682" y="51.1277" width="115.889" height="26.5106" fill="#5660BC"/>
<rect x="292.771" y="151.489" width="329.368" height="26.5106" fill="#5660BC"/>
<rect x="584.018" y="51.1277" width="115.889" height="26.5106" fill="#5660BC"/>
<rect x="544.372" y="100.362" width="39.6461" height="28.4043" fill="#5660BC"/>
<rect x="596.217" y="100.362" width="39.6461" height="28.4043" fill="#5660BC"/>
<rect x="559.62" width="85.3917" height="28.4043" fill="#A718FF"/>
</g>
<defs>
<clipPath id="clip0_468_2574">
<rect width="767" height="178" fill="white"/>
</clipPath>
</defs>
</svg>
